<svg width="44" height="44" viewBox="0 0 44 44" fill="none" xmlns="http://www.w3.org/2000/svg">
<g id="close-circle">
<path id="Vector" d="M22 4.125C12.1438 4.125 4.125 12.1438 4.125 22C4.125 31.8562 12.1438 39.875 22 39.875C31.8562 39.875 39.875 31.8562 39.875 22C39.875 12.1438 31.8562 4.125 22 4.125ZM28.472 26.528C28.605 26.6545 28.7114 26.8062 28.7849 26.9744C28.8584 27.1426 28.8974 27.3238 28.8998 27.5073C28.9021 27.6908 28.8677 27.8729 28.7986 28.0429C28.7294 28.2129 28.6269 28.3674 28.4972 28.4972C28.3674 28.6269 28.2129 28.7294 28.0429 28.7986C27.8729 28.8677 27.6908 28.9021 27.5073 28.8998C27.3238 28.8974 27.1426 28.8584 26.9744 28.7849C26.8062 28.7114 26.6545 28.605 26.528 28.472L22 23.9448L17.472 28.472C17.212 28.7189 16.8658 28.8546 16.5073 28.85C16.1487 28.8454 15.8062 28.7009 15.5526 28.4474C15.2991 28.1938 15.1546 27.8513 15.15 27.4927C15.1454 27.1342 15.2811 26.788 15.528 26.528L20.0552 22L15.528 17.472C15.2811 17.212 15.1454 16.8658 15.15 16.5073C15.1546 16.1487 15.2991 15.8062 15.5526 15.5526C15.8062 15.2991 16.1487 15.1546 16.5073 15.15C16.8658 15.1454 17.212 15.2811 17.472 15.528L22 20.0552L26.528 15.528C26.788 15.2811 27.1342 15.1454 27.4927 15.15C27.8513 15.1546 28.1938 15.2991 28.4474 15.5526C28.7009 15.8062 28.8454 16.1487 28.85 16.5073C28.8546 16.8658 28.7189 17.212 28.472 17.472L23.9448 22L28.472 26.528Z" fill="black"/>
</g>
</svg>
