<svg width="57" height="56" viewBox="0 0 57 56" fill="none" xmlns="http://www.w3.org/2000/svg">
<g id="color-palette-outline">
<path id="Vector" d="M47.0449 38.0516C46.323 37.3844 45.2621 37.2203 44.3543 37.0672C43.0965 36.8594 42.6152 36.6297 41.8824 35.9734C40.3184 34.5844 40.3184 32.5719 41.8824 31.1828L45.1965 28.2406C50.2715 23.7563 50.2715 16.4062 45.1965 11.9219C41.4559 8.62969 36.4355 7 31.2184 7C25.1262 7 18.7605 9.22031 13.8496 13.5734C4.7168 21.6453 4.7168 34.8688 13.8496 42.9406C18.3887 46.9547 24.5137 48.9562 30.573 49H30.759C36.8184 49 42.7902 47.0422 47.034 43.2688C48.609 41.8797 48.3454 39.2656 47.0449 38.0516Z" stroke="#1A1A1A" stroke-width="3.5" stroke-miterlimit="10"/>
<path id="Vector_2" d="M15.7506 26.25C17.6836 26.25 19.2506 24.683 19.2506 22.75C19.2506 20.817 17.6836 19.25 15.7506 19.25C13.8176 19.25 12.2506 20.817 12.2506 22.75C12.2506 24.683 13.8176 26.25 15.7506 26.25Z" fill="#1A1A1A"/>
<path id="Vector_3" d="M16.6256 37.5156C18.5586 37.5156 20.1256 35.9486 20.1256 34.0156C20.1256 32.0826 18.5586 30.5156 16.6256 30.5156C14.6926 30.5156 13.1256 32.0826 13.1256 34.0156C13.1256 35.9486 14.6926 37.5156 16.6256 37.5156Z" fill="#1A1A1A"/>
<path id="Vector_4" d="M24.501 19.25C26.434 19.25 28.001 17.683 28.001 15.75C28.001 13.817 26.434 12.25 24.501 12.25C22.568 12.25 21.001 13.817 21.001 15.75C21.001 17.683 22.568 19.25 24.501 19.25Z" fill="#1A1A1A"/>
<path id="Vector_5" d="M28.0011 45.3906C30.9006 45.3906 33.2511 43.0401 33.2511 40.1406C33.2511 37.2411 30.9006 34.8906 28.0011 34.8906C25.1016 34.8906 22.7511 37.2411 22.7511 40.1406C22.7511 43.0401 25.1016 45.3906 28.0011 45.3906Z" fill="#1A1A1A"/>
<path id="Vector_6" d="M35.8766 19.25C37.8096 19.25 39.3766 17.683 39.3766 15.75C39.3766 13.817 37.8096 12.25 35.8766 12.25C33.9436 12.25 32.3766 13.817 32.3766 15.75C32.3766 17.683 33.9436 19.25 35.8766 19.25Z" fill="#1A1A1A"/>
</g>
</svg>
