<svg width="48" height="48" viewBox="0 0 48 48" fill="none" xmlns="http://www.w3.org/2000/svg">
<g id="question" clip-path="url(#clip0_49_38)">
<path id="Vector" d="M24 48C17.6348 48 11.5303 45.4714 7.02944 40.9706C2.52856 36.4697 0 30.3652 0 24C0 17.6348 2.52856 11.5303 7.02944 7.02944C11.5303 2.52856 17.6348 0 24 0C30.3652 0 36.4697 2.52856 40.9706 7.02944C45.4714 11.5303 48 17.6348 48 24C48 30.3652 45.4714 36.4697 40.9706 40.9706C36.4697 45.4714 30.3652 48 24 48ZM28.8 16.8C28.8 17.472 28.296 18.72 27.792 19.2L24 22.992C22.632 24.384 21.6 26.832 21.6 28.8V31.2H26.4V28.8C26.4 28.104 26.904 26.88 27.408 26.4L31.2 22.608C32.568 21.216 33.6 18.768 33.6 16.8C33.6 14.2539 32.5886 11.8121 30.7882 10.0118C28.9879 8.21143 26.5461 7.2 24 7.2C21.4539 7.2 19.0121 8.21143 17.2118 10.0118C15.4114 11.8121 14.4 14.2539 14.4 16.8H19.2C19.2 15.527 19.7057 14.3061 20.6059 13.4059C21.5061 12.5057 22.727 12 24 12C25.273 12 26.4939 12.5057 27.3941 13.4059C28.2943 14.3061 28.8 15.527 28.8 16.8ZM21.6 36V40.8H26.4V36H21.6Z" fill="black"/>
</g>
<defs>
<clipPath id="clip0_49_38">
<rect width="48" height="48" fill="white"/>
</clipPath>
</defs>
</svg>
